<?xml version="1.0" encoding="UTF-8"?>
<!DOCTYPE svg PUBLIC "-//W3C//DTD SVG 1.1//EN" "http://www.w3.org/Graphics/SVG/1.1/DTD/svg11.dtd">
<!-- Creator: CorelDRAW -->
<svg xmlns="http://www.w3.org/2000/svg" xml:space="preserve" width="206.645mm" height="29.7557mm" version="1.1" style="shape-rendering:geometricPrecision; text-rendering:geometricPrecision; image-rendering:optimizeQuality; fill-rule:evenodd; clip-rule:evenodd"
viewBox="0 0 20394.75 2936.73"
 xmlns:xlink="http://www.w3.org/1999/xlink"
 xmlns:xodm="http://www.corel.com/coreldraw/odm/2003">
 <defs>
  <style type="text/css">
   <![CDATA[
    .fil17 {fill:none;fill-rule:nonzero}
    .fil1 {fill:#373435}
    .fil0 {fill:white}
    .fil2 {fill:white}
    .fil3 {fill:#373435;fill-rule:nonzero}
    .fil16 {fill:#01C853;fill-rule:nonzero}
    .fil4 {fill:#304FFF;fill-rule:nonzero}
    .fil15 {fill:#51BD3B;fill-rule:nonzero}
    .fil14 {fill:#6EB325;fill-rule:nonzero}
    .fil13 {fill:#83A70F;fill-rule:nonzero}
    .fil12 {fill:#929C00;fill-rule:nonzero}
    .fil11 {fill:#9E9000;fill-rule:nonzero}
    .fil10 {fill:#A88400;fill-rule:nonzero}
    .fil9 {fill:#B17600;fill-rule:nonzero}
    .fil8 {fill:#BB6700;fill-rule:nonzero}
    .fil7 {fill:#C55300;fill-rule:nonzero}
    .fil6 {fill:#CE3A00;fill-rule:nonzero}
    .fil5 {fill:#D60201;fill-rule:nonzero}
   ]]>
  </style>
   <clipPath id="id0" style="clip-rule:nonzero">
    <path d="M455.73 2049.98l0 -1857.41 803.99 0c166.29,0 309.58,26.98 429.86,80.94 120.29,53.95 213.16,131.34 278.61,232.17 65.45,100.84 98.18,221.13 98.18,360.87 0,137.99 -32.73,256.94 -98.18,356.89 -65.44,99.95 -158.32,176.45 -278.61,229.52 -120.29,53.07 -263.57,79.61 -429.86,79.61l-565.18 0 191.05 -188.4 0 705.82 -429.86 0zm1180.78 0l-464.36 -673.98 459.05 0 469.67 673.98 -464.36 0zm-750.92 -658.06l-191.05 -201.66 541.3 0c132.68,0 231.74,-28.74 297.18,-86.23 65.45,-57.5 98.18,-136.65 98.18,-237.49 0,-102.59 -32.73,-182.2 -98.18,-238.8 -65.44,-56.61 -164.5,-84.91 -297.18,-84.91l-541.3 0 191.05 -204.32 0 1053.41zm2170.51 679.29c-152.13,0 -287.01,-31.85 -404.66,-95.53 -117.63,-63.69 -210.51,-150.81 -278.61,-261.36 -68.11,-110.56 -102.16,-236.6 -102.16,-378.12 0,-143.28 34.05,-270.21 102.16,-380.76 68.1,-110.56 160.97,-197.24 278.61,-260.03 117.64,-62.81 252.53,-94.2 404.66,-94.2 150.36,0 284.8,31.39 403.33,94.2 118.51,62.79 211.38,149.03 278.61,258.7 67.22,109.68 100.83,237.04 100.83,382.1 0,141.52 -33.61,267.56 -100.83,378.12 -67.22,110.56 -160.09,197.68 -278.61,261.36 -118.52,63.68 -252.96,95.53 -403.33,95.53zm0 -339.65c68.99,0 130.9,-15.92 185.74,-47.76 54.83,-31.84 98.17,-77.39 130.02,-136.65 31.84,-59.26 47.76,-129.58 47.76,-210.95 0,-83.14 -15.92,-153.89 -47.76,-212.27 -31.85,-58.38 -75.19,-103.48 -130.02,-135.32 -54.84,-31.85 -116.76,-47.77 -185.74,-47.77 -69,0 -130.91,15.92 -185.74,47.77 -54.84,31.84 -98.62,76.94 -131.34,135.32 -32.73,58.38 -49.09,129.13 -49.09,212.27 0,81.37 16.36,151.69 49.09,210.95 32.73,59.27 76.5,104.81 131.34,136.65 54.83,31.84 116.75,47.76 185.74,47.76zm2886.94 -1130.36c113.21,0 213.6,22.55 301.17,67.67 87.56,45.1 156.55,114.1 206.96,206.97 50.41,92.87 75.62,211.83 75.62,356.88l0 817.26 -413.94 0 0 -753.57c0,-114.99 -23.87,-199.9 -71.64,-254.74 -47.76,-54.83 -114.98,-82.25 -201.66,-82.25 -60.14,0 -114.09,13.71 -161.86,41.14 -47.76,27.42 -84.91,68.54 -111.45,123.38 -26.53,54.83 -39.79,124.71 -39.79,209.62l0 716.43 -413.94 0 0 -753.57c0,-114.99 -23.44,-199.9 -70.32,-254.74 -46.88,-54.83 -113.66,-82.25 -200.33,-82.25 -60.15,0 -114.1,13.71 -161.87,41.14 -47.76,27.42 -84.91,68.54 -111.44,123.38 -26.54,54.83 -39.8,124.71 -39.8,209.62l0 716.43 -413.94 0 0 -1427.55 395.36 0 0 390.05 -74.3 -114.09c49.53,-97.29 119.84,-171.15 210.95,-221.57 91.11,-50.41 195.03,-75.62 311.78,-75.62 130.9,0 245.44,33.17 343.63,99.5 98.18,66.33 163.18,167.61 195.02,303.82l-145.94 -39.8c47.77,-111.45 124.28,-199.9 229.53,-265.34 105.25,-65.45 225.98,-98.18 362.19,-98.18zm1799.03 1470.01c-120.29,0 -225.54,-26.54 -315.75,-79.61 -90.22,-53.07 -160.54,-134 -210.95,-242.79 -50.42,-108.79 -75.63,-246.32 -75.63,-412.61 0,-168.05 23.88,-306.03 71.65,-413.94 47.76,-107.9 116.75,-188.39 206.96,-241.47 90.22,-53.06 198.12,-79.6 323.72,-79.6 134.44,0 255.18,30.52 362.19,91.55 107.02,61.02 191.94,146.38 254.74,256.04 62.8,109.68 94.19,238.81 94.19,387.41 0,150.36 -31.39,280.38 -94.19,390.06 -62.8,109.67 -147.72,194.58 -254.74,254.73 -107.01,60.14 -227.75,90.22 -362.19,90.22zm-843.79 493.54l0 -1942.32 395.36 0 0 291.88 -7.96 424.55 26.54 421.89 0 804.01 -413.94 0zm772.16 -833.19c68.98,0 130.45,-15.92 184.41,-47.76 53.95,-31.84 97.28,-77.39 130.01,-136.65 32.73,-59.26 49.1,-129.58 49.1,-210.95 0,-83.14 -16.37,-153.89 -49.1,-212.27 -32.73,-58.38 -76.06,-103.48 -130.01,-135.32 -53.96,-31.85 -115.43,-47.77 -184.41,-47.77 -69,0 -130.91,15.92 -185.74,47.77 -54.84,31.84 -98.18,76.94 -130.02,135.32 -31.85,58.38 -47.76,129.13 -47.76,212.27 0,81.37 15.91,151.69 47.76,210.95 31.84,59.27 75.18,104.81 130.02,136.65 54.83,31.84 116.75,47.76 185.74,47.76zm1767.18 339.65c-162.75,0 -305.58,-31.85 -428.52,-95.53 -122.95,-63.69 -218.03,-150.81 -285.25,-261.36 -67.22,-110.56 -100.84,-236.6 -100.84,-378.12 0,-143.28 33.17,-270.21 99.5,-380.76 66.34,-110.56 156.99,-197.24 271.98,-260.03 114.98,-62.81 245,-94.2 390.05,-94.2 139.75,0 265.78,29.63 378.12,88.89 112.32,59.26 201.22,144.16 266.67,254.72 65.44,110.56 98.18,242.79 98.18,396.69 0,15.92 -0.9,34.05 -2.65,54.39 -1.78,20.34 -3.54,39.36 -5.31,57.06l-1159.55 0 0 -241.47 941.97 0 -159.21 71.64c0,-74.29 -15.03,-138.86 -45.1,-193.7 -30.07,-54.83 -71.64,-97.74 -124.71,-128.69 -53.07,-30.96 -114.99,-46.44 -185.74,-46.44 -70.75,0 -133.11,15.48 -187.07,46.44 -53.95,30.95 -95.96,74.29 -126.04,130.02 -30.07,55.72 -45.1,121.61 -45.1,197.68l0 63.69c0,77.83 17.24,146.37 51.74,205.63 34.5,59.27 83.15,104.37 145.94,135.33 62.8,30.95 136.66,46.44 221.57,46.44 76.06,0 142.84,-11.5 200.33,-34.49 57.49,-23 110.12,-57.5 157.88,-103.48l220.24 238.81c-65.45,74.29 -147.71,131.33 -246.78,171.14 -99.06,39.8 -213.15,59.71 -342.29,59.71zm995.04 -21.23l0 -1857.41 804 0c166.28,0 309.57,26.98 429.86,80.94 120.28,53.95 213.15,131.34 278.61,232.17 65.45,100.84 98.17,221.13 98.17,360.87 0,137.99 -32.72,257.39 -98.17,358.21 -65.45,100.84 -158.33,178.23 -278.61,232.18 -120.3,53.96 -263.58,80.93 -429.86,80.93l-565.18 0 191.04 -193.7 0 705.82 -429.86 0zm429.86 -658.06l-191.04 -204.32 541.3 0c132.67,0 231.73,-28.3 297.18,-84.91 65.44,-56.6 98.18,-135.32 98.18,-236.16 0,-102.59 -32.74,-182.2 -98.18,-238.8 -65.45,-56.61 -164.51,-84.91 -297.18,-84.91l-541.3 0 191.04 -204.32 0 1053.41zm2162.55 679.29c-162.75,0 -305.59,-31.85 -428.53,-95.53 -122.94,-63.69 -218.02,-150.81 -285.25,-261.36 -67.22,-110.56 -100.83,-236.6 -100.83,-378.12 0,-143.28 33.17,-270.21 99.5,-380.76 66.33,-110.56 156.99,-197.24 271.98,-260.03 114.98,-62.81 245,-94.2 390.05,-94.2 139.75,0 265.78,29.63 378.11,88.89 112.33,59.26 201.23,144.16 266.67,254.72 65.45,110.56 98.18,242.79 98.18,396.69 0,15.92 -0.89,34.05 -2.65,54.39 -1.77,20.34 -3.54,39.36 -5.31,57.06l-1159.54 0 0 -241.47 941.97 0 -159.21 71.64c0,-74.29 -15.03,-138.86 -45.11,-193.7 -30.06,-54.83 -71.63,-97.74 -124.71,-128.69 -53.07,-30.96 -114.98,-46.44 -185.73,-46.44 -70.76,0 -133.12,15.48 -187.07,46.44 -53.96,30.95 -95.97,74.29 -126.04,130.02 -30.07,55.72 -45.11,121.61 -45.11,197.68l0 63.69c0,77.83 17.25,146.37 51.75,205.63 34.49,59.27 83.14,104.37 145.94,135.33 62.8,30.95 136.65,46.44 221.57,46.44 76.06,0 142.83,-11.5 200.33,-34.49 57.49,-23 110.11,-57.5 157.88,-103.48l220.23 238.81c-65.44,74.29 -147.7,131.33 -246.77,171.14 -99.06,39.8 -213.16,59.71 -342.29,59.71zm1833.52 -1470.01c113.22,0 214.49,22.55 303.82,67.67 89.34,45.1 159.66,114.1 210.95,206.97 51.3,92.87 76.95,211.83 76.95,356.88l0 817.26 -413.94 0 0 -753.57c0,-114.99 -25.21,-199.9 -75.62,-254.74 -50.41,-54.83 -121.61,-82.25 -213.6,-82.25 -65.45,0 -124.27,13.71 -176.46,41.14 -52.18,27.42 -92.87,69.42 -122.06,126.03 -29.18,56.61 -43.78,129.13 -43.78,217.58l0 705.82 -413.94 0 0 -1427.55 395.36 0 0 395.36 -74.3 -119.4c51.3,-95.53 124.71,-168.94 220.24,-220.25 95.53,-51.29 204.31,-76.94 326.36,-76.94zm1666.36 1470.01c-153.89,0 -290.99,-31.4 -411.27,-94.2 -120.3,-62.79 -214.49,-149.92 -282.6,-261.36 -68.1,-111.44 -102.15,-237.92 -102.15,-379.44 0,-143.28 34.05,-270.21 102.15,-380.76 68.11,-110.56 162.3,-197.24 282.6,-260.03 120.28,-62.81 257.38,-94.2 411.27,-94.2 150.37,0 281.27,31.39 392.72,94.2 111.45,62.79 193.7,152.57 246.77,269.32l-321.06 172.47c-37.15,-67.22 -83.58,-116.75 -139.31,-148.58 -55.72,-31.85 -116.3,-47.77 -181.77,-47.77 -70.75,0 -134.43,15.92 -191.03,47.77 -56.61,31.84 -101.28,76.94 -134.01,135.32 -32.72,58.38 -49.08,129.13 -49.08,212.27 0,83.14 16.36,153.89 49.08,212.27 32.73,58.38 77.4,103.49 134.01,135.33 56.6,31.84 120.28,47.76 191.03,47.76 65.46,0 126.04,-15.48 181.77,-46.43 55.72,-30.96 102.16,-80.93 139.31,-149.93l321.06 175.13c-53.07,114.98 -135.32,203.87 -246.77,266.66 -111.45,62.8 -242.34,94.2 -392.72,94.2zm1753.92 -21.23l0 -278.62 -26.53 -61.02 0 -498.85c0,-88.45 -26.97,-157.44 -80.93,-206.96 -53.96,-49.53 -136.65,-74.3 -248.1,-74.3 -76.06,0 -150.8,11.94 -224.21,35.83 -73.41,23.87 -135.76,56.16 -187.07,96.84l-148.58 -289.22c77.82,-54.83 171.58,-97.28 281.25,-127.37 109.68,-30.06 221.13,-45.1 334.34,-45.1 217.58,0 386.52,51.3 506.81,153.9 120.29,102.59 180.43,262.69 180.43,480.27l0 814.61 -387.41 0zm-435.15 21.23c-111.46,0 -206.97,-19.02 -286.58,-57.06 -79.6,-38.03 -140.63,-89.77 -183.09,-155.23 -42.45,-65.44 -63.68,-138.86 -63.68,-220.24 0,-84.91 20.79,-159.19 62.36,-222.88 41.58,-63.68 107.47,-113.66 197.69,-149.92 90.22,-36.27 207.85,-54.4 352.9,-54.4l379.45 0 0 241.47 -334.34 0c-97.29,0 -164.07,15.92 -200.34,47.76 -36.26,31.85 -54.39,71.64 -54.39,119.41 0,53.06 20.79,95.07 62.36,126.03 41.57,30.95 98.62,46.44 171.15,46.44 68.99,0 130.9,-16.36 185.74,-49.09 54.83,-32.72 94.64,-80.93 119.4,-144.61l63.68 191.04c-30.06,91.98 -84.91,161.86 -164.5,209.62 -79.61,47.77 -182.2,71.65 -307.8,71.65zm1676.97 0c-122.06,0 -239.25,-14.6 -351.58,-43.79 -112.32,-29.18 -201.22,-65.89 -266.66,-110.11l137.98 -297.18c65.45,40.68 142.84,73.85 232.17,99.5 89.34,25.64 177.34,38.47 264.03,38.47 95.52,0 163.18,-11.5 202.99,-34.49 39.8,-23 59.7,-54.83 59.7,-95.53 0,-33.62 -15.49,-58.81 -46.44,-75.62 -30.96,-16.81 -72.09,-29.63 -123.38,-38.47 -51.31,-8.85 -107.47,-17.7 -168.5,-26.54 -61.03,-8.85 -122.5,-20.79 -184.41,-35.82 -61.91,-15.04 -118.52,-37.6 -169.82,-67.67 -51.3,-30.07 -92.43,-70.76 -123.38,-122.06 -30.96,-51.31 -46.44,-117.64 -46.44,-199.02 0,-90.22 26.09,-169.81 78.27,-238.8 52.18,-68.99 127.8,-123.39 226.87,-163.19 99.06,-39.8 217.57,-59.7 355.56,-59.7 97.29,0 196.35,10.61 297.19,31.85 100.83,21.22 184.86,52.18 252.08,92.86l-137.99 294.53c-68.99,-40.69 -138.42,-68.54 -208.3,-83.58 -69.87,-15.03 -137.53,-22.55 -202.99,-22.55 -91.98,0 -159.2,12.39 -201.66,37.14 -42.45,24.77 -63.68,56.61 -63.68,95.53 0,35.38 15.48,61.91 46.44,79.61 30.96,17.69 72.08,31.84 123.38,42.46 51.3,10.61 107.47,19.9 168.49,27.85 61.03,7.96 122.51,19.91 184.42,35.83 61.91,15.92 118.08,38.48 168.49,67.67 50.41,29.19 91.55,68.99 123.39,119.41 31.84,50.4 47.76,116.3 47.76,197.68 0,88.44 -26.53,166.72 -79.6,234.82 -53.08,68.11 -129.58,121.62 -229.53,160.54 -99.94,38.92 -221.56,58.38 -364.84,58.38z"/>
   </clipPath>
 </defs>
 <g id="Capa_x0020_1">
  <metadata id="CorelCorpID_0Corel-Layer"/>
  <path class="fil0" d="M12222.51 702.9l187.3 -127.7c25.79,-17.58 52.46,-33.84 79.84,-48.8 149.23,-81.49 312.94,-117.76 482.35,-117.76 163.89,0 322.54,34.42 467.96,111.15 51.96,27.41 100.64,59.58 145.59,96.39l273.28 -186.31 720.02 0 0 20.43c89.91,-28.6 183.96,-41.66 279.74,-41.66 136.01,0 268.77,26.81 390.62,88.33 126.58,63.92 224.32,161.96 292.71,285.76 9.73,17.63 18.64,35.64 26.79,53.98 29.73,-26.58 61.25,-51.2 94.42,-73.82l263.17 -179.42c31.56,-21.52 64.41,-41.09 98.27,-58.76 155.49,-81.18 325.7,-116.06 500.38,-116.06 170.79,0 337.58,34.67 487.25,119.01 64.59,36.39 123.28,80.84 174.73,133.21l77.03 -52.52c1.97,-1.34 3.97,-2.66 5.88,-3.95 0.58,-0.39 1.22,-0.84 1.88,-1.27 98.34,-65.56 208.34,-111.34 322.06,-142.53 125.65,-34.45 254.98,-51.95 385.26,-51.95 226.84,0 455.26,49.41 631.77,199.96 49.71,42.41 91.6,91.13 125.89,145.17 4.43,-3.17 8.89,-6.29 13.39,-9.36l263.17 -179.42c49.01,-33.41 102.02,-60.67 157.02,-82.77 135.18,-54.32 282.41,-73.59 427.35,-73.59 113.21,0 226.11,12.65 336.85,35.97 108.76,22.9 216.65,58.79 312.11,116.56l148.13 89.64 -237.35 506.62c61.1,42.26 112.25,96.08 152.33,159.54 56.91,90.1 77.51,195.13 77.51,300.5 0,130.14 -40.18,250.41 -120.27,353.19 -40.54,52.02 -89.14,96.62 -143.45,133.91l-265.39 180.95c-51.64,35.19 -107.71,63.52 -165.9,86.17 -137.49,53.53 -287.92,71.5 -434.7,71.5 -134.92,0 -269.37,-16.03 -400.01,-49.98 -63.77,-16.57 -127.28,-36.76 -188.04,-62.78l-134.26 91.53 -712.06 0 0 -8.72c-78.67,21.47 -160.94,29.95 -242.59,29.95 -127.03,0 -254.28,-20.78 -369.6,-75.88 -94.51,-45.15 -176.49,-108.36 -238.84,-191.54l-163.06 111.17c-19.46,13.26 -39.5,25.67 -60.02,37.24 -149.67,84.33 -316.46,119.01 -487.25,119.01 -174.68,0 -344.89,-34.89 -500.38,-116.06 -55.14,-28.79 -107.03,-62.41 -155.01,-100.94l-287.15 195.77 -738.59 0 0 -209.2 -306.86 209.2 -738.59 0 0 -271.76 -190.73 130.03c-52.69,35.92 -109.33,65.59 -168.48,89.36 -131.51,52.84 -272.89,73.6 -414.08,73.6 -179.83,0 -356.58,-33.95 -517.1,-117.1 -149.75,-77.56 -273.35,-187.82 -361.21,-332.31 -66.97,-110.13 -106.29,-229.75 -121.52,-354.96l-139.33 94.99c-44.39,30.26 -91.57,56.25 -140.58,78.23 -134.56,60.35 -280.4,88.48 -427.07,95.79l0 293.48 -323.64 220.64 -754.52 0 0 -291.66 -219.9 149.93c-52.69,35.92 -109.33,65.6 -168.49,89.37 -131.52,52.84 -272.89,73.6 -414.08,73.6 -179.83,0 -356.57,-33.96 -517.09,-117.1 -128.47,-66.54 -237.72,-157.15 -321.64,-272.8 -23.33,19.94 -47.75,38.6 -73.17,55.94l-263.17 179.42c-20.73,14.12 -42.07,27.35 -63.93,39.64 -133.15,74.82 -279.06,110.93 -430.66,114.59l0 273.22 -323.64 220.64 -738.59 0 0 -546.7 -46.83 31.93 -738.59 0 0 -178.45 -261.75 178.45 -738.59 0 0 -176.64 -259.1 176.64 -738.59 0 0 -344.54c-5.63,4.1 -11.3,8.14 -17.01,12.13l-0.52 0.37c-0.93,0.64 -1.86,1.27 -2.78,1.91l-263.17 179.42c-28.42,19.37 -57.9,37.2 -88.2,53.48 -153.21,82.32 -321.21,118.46 -494.47,118.46 -173.81,0 -342.79,-35.63 -496.34,-118.74 -16.04,-8.69 -31.85,-17.81 -47.38,-27.37l-183.17 124.88 -793.88 0 -194.01 -281.61 0 60.96 -323.64 220.64 -754.52 0 0 -2201.32 323.64 -220.64 936.08 0c173.81,0 349.16,26.26 508.67,97.81 148.11,66.43 272.58,166.31 361.32,303.02 65.78,101.34 104.01,212.96 120.13,329.77l221.36 -150.92c28.84,-19.66 58.77,-37.71 89.57,-54.14 153.47,-81.93 322.15,-116.89 495.34,-116.89 172.66,0 340.33,35.47 493.48,116.62 53.07,28.12 103.15,60.75 149.59,97.92l283.55 -193.31 720.02 0 0 15.43c82.42,-25.11 168.38,-36.66 255.87,-36.66 162.31,0 316.3,41.21 451.43,132.5 9.95,6.73 19.7,13.73 29.24,21.01 3.47,-2.38 6.95,-4.75 10.43,-7.12 9.68,-6.59 19.49,-12.99 29.45,-19.18 140.91,-87.62 298.61,-127.22 463.87,-127.22 135.66,0 268.25,26.67 389.36,89.05 60.82,31.33 114.88,70.79 162.11,117.4l271.68 -185.22 720.02 0 0 13.64c82.59,-24.3 168.82,-34.87 255.87,-34.87 161.52,0 316.82,36.57 457.58,116.83 120.88,68.94 219.68,162.47 295.39,277.14 20.65,-16.92 42.04,-32.92 64.14,-48l263.17 -179.42c25.79,-17.58 52.46,-33.84 79.84,-48.8 149.23,-81.49 312.94,-117.76 482.35,-117.76 163.9,0 322.54,34.42 467.97,111.15 44.03,23.22 85.56,49.77 124.4,79.58l0 -378.72 323.64 -220.64 936.09 0c173.81,0 349.16,26.26 508.67,97.81 148.11,66.43 272.57,166.31 361.31,303.02 60.55,93.27 97.77,195.3 115.87,302.07zm-1167.42 292.14l91.58 0c-4.53,-15.97 -12.41,-30.62 -25.84,-42.23 -15.7,-13.59 -39.88,-22.41 -65.74,-28.1l0 70.33zm-3555.61 342.33c0.11,39.92 5.71,83.07 24.82,118.62 13.28,24.73 30.11,44.74 53.93,59.39 -0.02,-39.03 -5.14,-83.33 -24.52,-117.89 -13.73,-24.49 -30.9,-44.93 -54.23,-60.12zm-4616.99 -2.53c0,0.45 0,0.9 0,1.35 0,39.77 5.62,82.58 25.1,117.86 14,25.35 31.68,46.2 56.31,61.33 -0.02,-39.51 -5.05,-84.67 -24.24,-119.84 -13.99,-25.66 -31.86,-45.89 -57.16,-60.71zm-1804.34 -337.15l92.29 0c-4.39,-16.99 -12.38,-32.63 -26.56,-44.89 -15.7,-13.59 -39.87,-22.4 -65.73,-28.09l0 72.97zm15974.35 283.79l-137.12 73.66 98.56 53.76c22.29,-22.49 46.53,-43 72.39,-61.57l-33.83 -65.85zm-583.11 232.74l-57.74 -104.47c-15.87,-28.72 -37.34,-57.97 -66.32,-74.54 -1.52,-0.87 -3.05,-1.72 -4.59,-2.54 -0.01,1.17 -0.01,2.35 -0.01,3.52 0,39.07 5.09,83.5 24.5,118.12 14.85,26.5 33.88,46.71 60.44,61.65 11.25,6.33 22.89,11.16 34.86,14.73l8.86 -16.47z"/>
  <path class="fil1" d="M20054.26 1170.26l-22.64 15.45c15.11,7.36 29.98,15.26 44.58,23.71 65.65,38.01 119.11,90.15 159.59,154.25 47.85,75.74 64,165.38 64,253.8 0,110.75 -33.7,212.06 -101.8,299.44 -35.43,45.47 -77.48,83.61 -123.97,115.57l-1.98 1.36 -263.17 179.42c-45.85,31.27 -95.99,56.56 -148.36,76.94 -126.93,49.43 -267.54,65.54 -402.98,65.54 -127.61,0 -254.44,-15.06 -378.02,-47.17 -73.21,-19.03 -148.94,-43.9 -218.45,-78.25l-152.82 104.18 -597.65 0 0 -47.8c-101.39,51.5 -216.95,69.03 -330.04,69.03 -113.79,0 -228.54,-17.94 -331.9,-67.33 -91.92,-43.92 -170.23,-106.95 -225.96,-192.87 -9.13,-14.07 -17.46,-28.42 -25.01,-43.04l-237.89 162.19c-17.23,11.75 -35.14,22.86 -53.69,33.31 -136.48,76.91 -288.66,107.75 -444.31,107.75 -160.6,0 -316.92,-31.48 -459.92,-106.14 -95.39,-49.79 -178.1,-114.24 -246.43,-193.63l0 99.12 -263.17 179.42 -624.17 0 0 -858.69c0,-56.8 -7.18,-139.31 -47.89,-183.6 -27.17,-29.55 -63.46,-42.2 -101.69,-46.47 -6.46,32.89 -8.54,67.13 -8.54,98.41l0 810.93 -263.17 179.42 -624.17 0 0 -355.19c-20.53,17.64 -41.97,34.04 -64.26,49.24l-263.17 179.42c-47.08,32.1 -97.92,58.82 -151.82,80.48 -121.07,48.65 -251.55,67.29 -381.48,67.29 -165.77,0 -328.85,-30.62 -476.88,-107.3 -135.69,-70.29 -247.24,-169.39 -326.72,-300.09 -80.33,-132.11 -116.12,-278.75 -116.12,-432.74 0,-12.64 0.26,-25.24 0.73,-37.79 -2.08,1.45 -4.16,2.89 -6.26,4.32l-263.17 179.42c-39.64,27.02 -82.14,50.53 -127.11,70.7 -148.03,66.4 -311.65,90.14 -472.89,90.14l-5.84 0 0 332.7 -263.17 179.42 -640.1 0 0 -381.68c-29.13,27.96 -60.35,53.17 -93.43,75.72l-263.17 179.42c-47.09,32.1 -97.92,58.83 -151.83,80.49 -121.07,48.65 -251.54,67.29 -381.48,67.29 -165.77,0 -328.84,-30.63 -476.87,-107.3 -135.69,-70.28 -247.25,-169.39 -326.72,-300.1 -6.61,-10.89 -12.92,-21.86 -18.94,-32.93 -40.96,45.82 -87.17,86.48 -138.63,121.56l-263.17 179.42c-18.5,12.61 -37.67,24.51 -57.52,35.66 -127.58,71.7 -267.71,103.7 -413.7,103.7 -20.64,0 -41.18,-0.71 -61.57,-2.14l0 316.27 -263.17 179.42 -624.17 0 0 -624.71 -161.25 109.94 -624.17 0 0 -858.69c0,-56.31 -6.72,-140.84 -45.79,-185.7 -17.33,-19.9 -38.4,-31.84 -61.6,-38.58 -4.19,27.72 -5.61,55.96 -5.61,82.01l0 821.55 -263.17 179.42 -624.17 0 0 -858.69c0,-56.17 -6.57,-141.37 -45.1,-186.43 -16.65,-19.48 -37.12,-31.17 -59.65,-37.81 -4.18,27.71 -5.6,55.93 -5.6,81.97l0 821.55 -263.17 179.42 -624.17 0 0 -454.15c-45.4,52.23 -97.08,98.03 -154.51,137.48l-0.52 0.37c-0.66,0.45 -1.32,0.91 -1.98,1.36l-263.17 179.42c-25.65,17.49 -52.45,33.72 -80.34,48.71 -140.48,75.49 -294.22,108.05 -453.08,108.05 -159.26,0 -313.96,-32.02 -454.71,-108.2 -31.37,-16.99 -61.33,-35.57 -89.86,-55.71l-209.29 142.68 -720.96 0 -327.4 -475.21 0 295.79 -263.17 179.42 -640.1 0 0 -2067.65 263.17 -179.42 909.11 0c161.24,0 324.85,23.75 472.89,90.15 132.89,59.6 244.25,148.37 323.76,270.85 81.66,125.81 115.13,269.18 115.13,418.1 0,10.84 -0.21,21.63 -0.57,32.4 27.15,-24.32 55.96,-46.86 86.38,-67.6l263.17 -179.42c26.01,-17.74 53.18,-34.15 81.48,-49.26 140.79,-75.16 295.35,-106.59 454.16,-106.59 158.41,0 311.99,31.97 452.54,106.44 91.54,48.5 171.4,110.5 237.88,186.36l0 -92.15 263.17 -179.42 605.6 0 0 57.22c106.77,-54.65 223.13,-78.45 343.31,-78.45 145.01,0 281.94,36.08 402.48,117.52 25.96,17.54 50.04,37.07 72.2,58.47 21.88,-14.91 43.75,-29.86 65.64,-44.75 8.67,-5.91 17.47,-11.65 26.41,-17.2 127.06,-79.01 268.77,-114.03 417.71,-114.03 121.69,0 240.62,23.34 349.31,79.34 101.34,52.2 180.05,129.7 237.64,226.45l0 -105.14 263.17 -179.42 605.6 0 0 54.43c106.32,-54.04 223.75,-75.66 343.31,-75.66 146.46,0 286.75,32.64 414.26,105.36 124.6,71.05 222.61,170.63 293.89,295.12 8.5,14.84 16.43,29.88 23.83,45.1 40.31,-42.95 85.16,-81.23 134.38,-114.78l263.17 -179.42c23.2,-15.82 47.38,-30.6 72.5,-44.31 136.39,-74.48 285.63,-107.06 440.43,-107.06 149.73,0 294.29,30.93 427.17,101.04 100.53,53.03 184.9,124.2 252.65,212.2l0 -542.47 263.17 -179.42 909.12 0c161.24,0 324.85,23.75 472.89,90.15 132.89,59.6 244.25,148.37 323.76,270.85 80.8,124.46 114.39,266.17 115.09,413.39 15.36,-12.17 31.19,-23.82 47.51,-34.96l263.17 -179.42c23.21,-15.82 47.38,-30.6 72.5,-44.31 136.39,-74.48 285.63,-107.06 440.43,-107.06 149.72,0 294.28,30.94 427.16,101.04 86.57,45.68 161.17,104.79 223.47,176.53l0 -76.92 263.17 -179.42 605.6 0 0 63.52c114.17,-59.26 238.76,-84.75 367.18,-84.75 122.32,0 241.58,23.59 351.21,78.95 110.79,55.95 195.62,141.43 255.58,249.98 30.88,55.91 52.23,116.14 66.38,178.26 51.42,-65.34 111.94,-121.32 180.63,-168.14l263.17 -179.42c28.45,-19.4 58.3,-37.23 89.48,-53.5 143,-74.65 299.32,-106.14 459.92,-106.14 155.65,0 307.83,30.83 444.32,107.75 80.49,45.35 148.37,103.16 203.19,172.72l140.75 -95.95c1.8,-1.22 3.6,-2.43 5.41,-3.63 0.53,-0.37 1.07,-0.73 1.6,-1.09 90.48,-60.33 191.99,-102.24 296.68,-130.95 118.28,-32.43 239.52,-48.84 362.14,-48.84 205.24,0 415.03,42.59 575.02,179.04 71.64,61.11 121.96,135.03 156.02,216.22 27.2,-28.03 57.18,-52.8 89.28,-74.68l263.17 -179.42c43.5,-29.66 90.86,-54 140.36,-73.88 124.5,-50.03 261.3,-67.28 394.75,-67.28 107.22,0 213.97,12.02 318.84,34.1 98.79,20.8 198.11,53.31 284.85,105.8l80.86 48.93 -227.13 484.8 -0.82 0.55zm-18190.49 306.31l-23.29 15.88 64.46 92.49c-1.69,-22.92 -2.54,-46.03 -2.54,-69.32 0,-23.27 0.83,-46.38 2.48,-69.29 -13.32,10.55 -27.03,20.63 -41.11,30.25zm8200.6 184l0 65.59 -37.14 -40.27 37.14 -25.33zm3558.27 19.89l0 14.07 -7.96 -8.64 7.96 -5.44zm-2655 -597.97l245.14 0c8.08,0 16.49,-0.12 25.12,-0.4 1.34,-11.74 1.95,-23.81 1.95,-36.12 0,-61.39 -14.16,-118.07 -61.82,-159.29 -52.93,-45.76 -140.26,-57.49 -210.39,-59.09l0 254.91zm-3541.63 143.42c39.66,2.29 77.45,12.1 112.24,32.64 39.65,23.4 69.28,56.12 91.75,96.2 27.19,48.5 35.68,105.97 35.68,160.87 0,37.15 -4.12,74.73 -15.02,110.22 -39.94,-2.42 -77.91,-12.47 -113.17,-32.94 -39.61,-23 -68.61,-55.33 -90.21,-95.51 -26.44,-49.21 -35.23,-105.87 -35.23,-161.19 0,-36.65 3.66,-74.58 13.98,-110.29zm-4616.43 -0.11c41.09,2.07 80.12,12.12 116.32,33.13 39.44,22.9 68.69,54.74 90.52,94.75 26.68,48.91 34.92,106.9 34.92,161.94 0,37.03 -3.95,74.66 -14.49,110.26 -40.14,-2.37 -78.28,-12.42 -113.71,-32.98 -40.07,-23.26 -69.75,-56.08 -92.1,-96.56 -26.95,-48.79 -35.99,-104.95 -35.99,-160.13 0,-36.8 3.82,-74.76 14.53,-110.4zm-1818.86 -140.66l245.13 0c7.99,0 16.3,-0.12 24.81,-0.39 1.56,-12.58 2.26,-25.53 2.26,-38.79 0,-61.4 -14.15,-118.07 -61.82,-159.29 -52.92,-45.76 -140.26,-57.49 -210.38,-59.09l0 257.56zm16096.02 71.6l-49.06 33.45 -499.23 268.18 -50.25 -90.92c-24.01,-43.45 -55.83,-83.23 -99.46,-108.16 -37.78,-21.6 -77.72,-32.5 -120.83,-33.79 -10.77,35.73 -14.61,73.79 -14.61,110.7 0,54.9 8.48,112.38 35.66,160.87 22.73,40.55 53.25,72.27 93.85,95.11 39.1,22 81.33,32.25 125.64,33.99l29.31 -54.45 263.17 -179.42 233.22 127.22c31.56,-43.17 70.32,-78.95 113.73,-108.53l51.46 -35.09 -112.59 -219.16z"/>
  <path class="fil2" d="M18771.41 1949.93l223.67 -481.76 100.84 62.67c63.26,39.32 134.28,67.24 205.69,87.75 76.55,21.97 155.3,34.39 235.02,34.39 33.24,0 110.35,-2.08 144.99,-17.66 -22.5,-8.51 -48.17,-13.99 -69.98,-17.75 -55.1,-9.5 -110.38,-18.07 -165.72,-26.09 -65.27,-9.46 -130.05,-22.14 -194.14,-37.7 -69.58,-16.9 -136.34,-42.88 -198.17,-79.12 -66.57,-39.01 -120.36,-92.37 -160.22,-158.43 -45.98,-76.19 -61.56,-165.4 -61.56,-253.33 0,-111.03 32.41,-213.45 99.56,-302.22 69.48,-91.85 165.59,-154.75 271.51,-197.31 124.5,-50.03 261.3,-67.28 394.75,-67.28 107.22,0 213.97,12.02 318.84,34.1 98.79,20.8 198.11,53.31 284.85,105.8l80.86 48.93 -227.13 484.8 -99.55 -58.72c-55.1,-32.5 -114.33,-57.87 -177.01,-71.36 -59.41,-12.79 -120.05,-20.2 -180.87,-20.2 -38.48,0 -114.36,2.79 -148.7,22.82 -0.53,0.32 -1.18,0.71 -1.9,1.15 24.01,10.61 52.22,17.7 76.38,22.7 53.18,11 106.95,19.53 160.79,26.55 66.38,8.67 132.16,21.58 196.99,38.26 68.2,17.53 134,43.18 194.99,78.5 65.65,38.01 119.11,90.15 159.59,154.25 47.85,75.74 64,165.38 64,253.8 0,110.75 -33.7,212.06 -101.8,299.44 -70.78,90.84 -167.96,152.47 -274.31,193.88 -126.93,49.43 -267.54,65.54 -402.98,65.54 -127.61,0 -254.44,-15.06 -378.02,-47.17 -102.8,-26.72 -210.57,-64.94 -299.08,-124.76l-72.19 -48.77 0 199.47 -597.65 0 0 -47.8c-101.39,51.5 -216.95,69.03 -330.04,69.03 -113.79,0 -228.54,-17.94 -331.9,-67.33 -91.92,-43.92 -170.23,-106.95 -225.96,-192.87 -22.46,-34.64 -40.13,-70.96 -53.12,-108.71 -62.36,110.29 -150.87,197.72 -263.48,261.17 -136.48,76.91 -288.66,107.75 -444.31,107.75 -160.6,0 -316.92,-31.48 -459.92,-106.14 -134.81,-70.37 -244.35,-169.96 -323.65,-299.74 -80.9,-132.38 -117.58,-279.39 -117.58,-434.26 0,-155.29 36.08,-303.29 117.77,-435.9 79.48,-129.03 189.13,-227.97 323.45,-298.09 143,-74.65 299.32,-106.14 459.92,-106.14 155.65,0 307.83,30.83 444.32,107.75 130.98,73.8 228.65,180.53 290.85,317.39l40.71 89.56 -499.23 268.18 -50.25 -90.92c-24.01,-43.45 -55.83,-83.23 -99.46,-108.16 -40.34,-23.06 -83.13,-33.92 -129.61,-33.92 -49.36,0 -96.33,9.99 -139.5,34.27 -40.6,22.84 -71.12,54.55 -93.85,95.1 -27.18,48.49 -35.66,105.97 -35.66,160.87 0,54.9 8.48,112.38 35.66,160.87 22.73,40.55 53.25,72.27 93.85,95.11 43.16,24.28 90.14,34.26 139.5,34.26 46.66,0 89.93,-10.54 130.72,-33.2 43.38,-24.1 74.63,-64.85 97.8,-107.86l50.11 -93.07 404.87 220.85c3.84,-91.07 28.52,-177.62 78.92,-254.82 45.16,-69.18 108,-120.65 179.36,-158.79l-235.88 -459.16 74.72 -52.65c94.75,-66.76 202.57,-112.26 314,-142.81 118.28,-32.43 239.52,-48.84 362.14,-48.84 205.24,0 415.03,42.59 575.02,179.04 165.49,141.15 217.34,350.63 217.34,560.25l0 714.56zm-1208.13 -793.51c113.7,-39.04 241.57,-50.06 360.05,-50.06l197.8 0c-5.72,-8.7 -12.59,-16.88 -20.79,-24.41 -43.04,-39.51 -121.78,-46.61 -177.01,-46.61 -65.41,0 -129.48,10.43 -191.69,30.67 -55.05,17.9 -108.72,43.12 -154.27,79.23l-14.08 11.17zm-9024.12 -20.21c18.26,-81.98 48.76,-160.74 93.23,-234.86 76.44,-127.4 181.33,-226.99 311.74,-298.21 136.39,-74.48 285.63,-107.06 440.43,-107.06 149.73,0 294.29,30.93 427.17,101.04 130.09,68.62 233.15,167.57 308.08,294.14 81.19,137.14 112.85,292.13 112.85,450.25 0,21.17 -1.21,42.4 -3.05,63.49 -1.69,19.47 -3.49,38.94 -5.44,58.4l-9.45 94.68 -305.36 0 258.86 280.68 -62.64 71.1c-78.71,89.33 -176.16,154.87 -286.46,199.19 -121.07,48.65 -251.54,67.29 -381.48,67.29 -165.77,0 -328.84,-30.63 -476.87,-107.3 -135.69,-70.28 -247.25,-169.39 -326.72,-300.1 -44.82,-73.71 -75.78,-151.93 -94.38,-233.43 -16.78,84.65 -45.59,166.46 -89.42,243.01 -71.21,124.36 -169.37,223.83 -294.46,294.13 -127.58,71.7 -267.71,103.7 -413.7,103.7 -113.41,0 -223.6,-21.03 -324.74,-70.33l0 563.87 -624.17 0 0 -2152.56 605.6 0 0 54.43c106.32,-54.04 223.75,-75.66 343.31,-75.66 146.46,0 286.75,32.64 414.26,105.36 124.6,71.05 222.61,170.63 293.89,295.12 43.3,75.61 72.04,156.22 88.92,239.66zm674.48 421.86c17.26,16.2 37.06,29.66 59.51,40.73 54.04,26.63 115.36,35.6 175.09,35.6 54.22,0 110.64,-6.71 161.29,-26.97 31.29,-12.51 60.04,-29.22 86.48,-49.36l-482.37 0zm-7373.43 -66.03l462.05 663.05 -720.96 0 -356.49 -517.42 -234.08 0 0 517.42 -640.1 0 0 -2067.65 909.11 0c161.24,0 324.85,23.75 472.89,90.15 132.89,59.6 244.25,148.37 323.76,270.85 81.66,125.81 115.13,269.18 115.13,418.1 0,147.91 -33.78,289.91 -115.35,414.48 -57.04,87.09 -130.2,157 -215.93,211.03zm1215.91 684.28c-159.26,0 -313.96,-32.02 -454.71,-108.2 -131.98,-71.45 -239.34,-170.9 -318.05,-298.68 -81.25,-131.88 -117.78,-278.69 -117.78,-433.25 0,-155.29 36.08,-303.29 117.78,-435.9 78.74,-127.83 186.32,-227.02 318.6,-297.63 140.79,-75.16 295.35,-106.59 454.16,-106.59 158.41,0 311.99,31.97 452.54,106.44 132.54,70.22 240.62,168.74 319.01,296.65 81.48,132.95 116.32,281.82 116.32,437.03 0,153.98 -35.8,300.61 -116.12,432.73 -78.21,128.63 -186.08,228.11 -318.68,299.35 -140.48,75.49 -294.22,108.05 -453.08,108.05zm1559.2 -1601.8c106.77,-54.65 223.13,-78.45 343.31,-78.45 145.01,0 281.94,36.08 402.48,117.52 27.18,18.37 52.31,38.92 75.32,61.52 27.82,-23.83 57.55,-45.49 88.92,-65 127.06,-79.01 268.77,-114.03 417.71,-114.03 121.69,0 240.62,23.34 349.31,79.34 109.53,56.42 192.64,142.38 251.21,250.27 67.06,123.54 88.35,268.03 88.35,407.03l0 922.38 -624.17 0 0 -858.69c0,-56.31 -6.72,-140.84 -45.79,-185.7 -31.61,-36.3 -75.68,-46.17 -122.39,-46.17 -38.84,0 -75.71,7.77 -109.52,27.18 -31.68,18.19 -53.35,45.33 -69.16,78 -23.47,48.5 -29.3,110.71 -29.3,163.83l0 821.55 -624.17 0 0 -858.69c0,-56.17 -6.57,-141.37 -45.1,-186.43 -30.78,-36.01 -74.6,-45.44 -120.43,-45.44 -38.84,0 -75.71,7.77 -109.53,27.18 -31.67,18.19 -53.34,45.34 -69.15,78 -23.48,48.51 -29.31,110.7 -29.31,163.83l0 821.55 -624.17 0 0 -1637.79 605.6 0 0 57.22zm6352.34 1068.45l0 512.12 -640.1 0 0 -2067.65 909.12 0c161.24,0 324.85,23.75 472.89,90.15 132.89,59.6 244.25,148.37 323.76,270.85 81.66,125.8 115.12,269.19 115.12,418.1 0,148.18 -33.87,290.29 -115.12,415.45 -79.51,122.49 -190.86,211.26 -323.76,270.86 -148.03,66.4 -311.65,90.14 -472.89,90.14l-269.01 0zm2529.16 -84.91l258.84 280.68 -62.63 71.1c-78.7,89.33 -176.15,154.87 -286.45,199.19 -121.07,48.65 -251.55,67.29 -381.48,67.29 -165.77,0 -328.85,-30.62 -476.88,-107.3 -135.69,-70.29 -247.24,-169.39 -326.72,-300.09 -80.33,-132.11 -116.12,-278.75 -116.12,-432.74 0,-154.32 34.81,-302.06 114.49,-434.85 76.43,-127.4 181.34,-226.99 311.74,-298.21 136.39,-74.48 285.63,-107.06 440.43,-107.06 149.72,0 294.28,30.94 427.16,101.04 130.09,68.63 233.15,167.56 308.08,294.14 81.19,137.14 112.85,292.13 112.85,450.25 0,21.17 -1.21,42.4 -3.05,63.49 -1.69,19.47 -3.49,38.94 -5.44,58.4l-9.45 94.68 -305.35 0zm-695.73 0c17.26,16.2 37.06,29.66 59.52,40.73 54.04,26.63 115.36,35.6 175.09,35.6 54.22,0 110.64,-6.72 161.3,-26.97 31.28,-12.51 60.03,-29.22 86.47,-49.36l-482.38 0zm1690.33 -977.25c114.17,-59.26 238.76,-84.75 367.18,-84.75 122.32,0 241.58,23.59 351.21,78.95 110.79,55.95 195.62,141.43 255.58,249.98 68.24,123.54 90.06,268.18 90.06,407.71l0 922.38 -624.17 0 0 -858.69c0,-56.8 -7.18,-139.31 -47.89,-183.6 -35.27,-38.36 -85.93,-48.27 -136.22,-48.27 -44.62,0 -87.86,8.21 -127.55,29.07 -35.01,18.4 -59.47,46.14 -77.52,81.15 -25.67,49.81 -32.1,114.26 -32.1,169.42l0 810.93 -624.17 0 0 -1637.79 605.6 0 0 63.52zm-13500.7 504.31l245.13 0c72.73,0 170.46,-9.7 227.81,-60.09 47.36,-41.61 62.43,-96.75 62.43,-158.51 0,-61.4 -14.15,-118.07 -61.82,-159.29 -57.57,-49.78 -155.87,-59.3 -228.42,-59.3l-245.13 0 0 437.19zm2065.39 541.3c47.22,0 91.91,-9.71 132.96,-33.55 39.61,-23 68.62,-55.33 90.21,-95.51 26.44,-49.21 35.23,-105.87 35.23,-161.19 0,-55.04 -8.24,-113.03 -34.92,-161.94 -21.83,-40.01 -51.08,-71.85 -90.52,-94.75 -41.06,-23.83 -85.75,-33.56 -132.96,-33.56 -47.22,0 -91.91,9.72 -132.96,33.56 -39.96,23.2 -69.86,55.55 -92.43,95.81 -27.19,48.5 -35.67,105.97 -35.67,160.87 0,55.18 9.04,111.34 35.99,160.13 22.35,40.48 52.03,73.3 92.1,96.56 41.05,23.83 85.75,33.55 132.96,33.55zm4614.33 0c46.5,0 90.75,-9.43 130.99,-33.17 39.74,-23.45 69.17,-56.65 91.41,-96.94 26.95,-48.8 36,-104.95 36,-160.13 0,-54.9 -8.49,-112.37 -35.68,-160.87 -22.46,-40.08 -52.1,-72.8 -91.75,-96.2 -40.23,-23.75 -84.48,-33.17 -130.98,-33.17 -47.22,0 -91.91,9.72 -132.96,33.56 -39.44,22.9 -68.69,54.74 -90.52,94.75 -26.68,48.91 -34.92,106.9 -34.92,161.94 0,55.32 8.79,111.98 35.23,161.19 21.59,40.18 50.6,72.51 90.21,95.51 41.05,23.83 85.75,33.55 132.96,33.55zm1518.59 -520.07l394.33 0c-17.3,-21.95 -38.22,-40.15 -63.38,-54.82 -40.52,-23.64 -86.28,-32.12 -132.77,-32.12 -47.28,0 -93.41,8.77 -134.75,32.49 -25.26,14.5 -46.19,32.56 -63.43,54.45zm1778.62 -23.88l245.14 0c72.55,0 170.85,-9.51 228.42,-59.3 47.18,-40.8 61.82,-95.65 61.82,-156.65 0,-61.39 -14.16,-118.07 -61.82,-159.29 -57.57,-49.78 -155.87,-59.3 -228.42,-59.3l-245.14 0 0 434.53zm1808.83 23.88l394.33 0c-17.29,-21.95 -38.22,-40.15 -63.37,-54.82 -40.53,-23.64 -86.27,-32.12 -132.77,-32.12 -47.28,0 -93.41,8.77 -134.75,32.49 -25.27,14.5 -46.2,32.56 -63.44,54.45zm5370.76 470.96l0 -19.26 -178.8 0c-26.07,0 -109.95,3.16 -130.98,21.62 -13.29,11.68 -18.63,22.72 -18.63,40.43 0,19.08 4.7,30.31 20.02,41.72 28.55,21.26 74.11,25.63 108.37,25.63 47.11,0 91.32,-10.04 131.88,-34.24 31.27,-18.66 52.93,-44.17 68.15,-75.91z"/>
  <path class="fil3" d="M455.73 2049.98l0 -1857.41 803.99 0c166.29,0 309.58,26.98 429.86,80.94 120.29,53.95 213.16,131.34 278.61,232.17 65.45,100.84 98.18,221.13 98.18,360.87 0,137.99 -32.73,256.94 -98.18,356.89 -65.44,99.95 -158.32,176.45 -278.61,229.52 -120.29,53.07 -263.57,79.61 -429.86,79.61l-565.18 0 191.05 -188.4 0 705.82 -429.86 0zm1180.78 0l-464.36 -673.98 459.05 0 469.67 673.98 -464.36 0zm-750.92 -658.06l-191.05 -201.66 541.3 0c132.68,0 231.74,-28.74 297.18,-86.23 65.45,-57.5 98.18,-136.65 98.18,-237.49 0,-102.59 -32.73,-182.2 -98.18,-238.8 -65.44,-56.61 -164.5,-84.91 -297.18,-84.91l-541.3 0 191.05 -204.32 0 1053.41zm2170.51 679.29c-152.13,0 -287.01,-31.85 -404.66,-95.53 -117.63,-63.69 -210.51,-150.81 -278.61,-261.36 -68.11,-110.56 -102.16,-236.6 -102.16,-378.12 0,-143.28 34.05,-270.21 102.16,-380.76 68.1,-110.56 160.97,-197.24 278.61,-260.03 117.64,-62.81 252.53,-94.2 404.66,-94.2 150.36,0 284.8,31.39 403.33,94.2 118.51,62.79 211.38,149.03 278.61,258.7 67.22,109.68 100.83,237.04 100.83,382.1 0,141.52 -33.61,267.56 -100.83,378.12 -67.22,110.56 -160.09,197.68 -278.61,261.36 -118.52,63.68 -252.96,95.53 -403.33,95.53zm0 -339.65c68.99,0 130.9,-15.92 185.74,-47.76 54.83,-31.84 98.17,-77.39 130.02,-136.65 31.84,-59.26 47.76,-129.58 47.76,-210.95 0,-83.14 -15.92,-153.89 -47.76,-212.27 -31.85,-58.38 -75.19,-103.48 -130.02,-135.32 -54.84,-31.85 -116.76,-47.77 -185.74,-47.77 -69,0 -130.91,15.92 -185.74,47.77 -54.84,31.84 -98.62,76.94 -131.34,135.32 -32.73,58.38 -49.09,129.13 -49.09,212.27 0,81.37 16.36,151.69 49.09,210.95 32.73,59.27 76.5,104.81 131.34,136.65 54.83,31.84 116.75,47.76 185.74,47.76zm2886.94 -1130.36c113.21,0 213.6,22.55 301.17,67.67 87.56,45.1 156.55,114.1 206.96,206.97 50.41,92.87 75.62,211.83 75.62,356.88l0 817.26 -413.94 0 0 -753.57c0,-114.99 -23.87,-199.9 -71.64,-254.74 -47.76,-54.83 -114.98,-82.25 -201.66,-82.25 -60.14,0 -114.09,13.71 -161.86,41.14 -47.76,27.42 -84.91,68.54 -111.45,123.38 -26.53,54.83 -39.79,124.71 -39.79,209.62l0 716.43 -413.94 0 0 -753.57c0,-114.99 -23.44,-199.9 -70.32,-254.74 -46.88,-54.83 -113.66,-82.25 -200.33,-82.25 -60.15,0 -114.1,13.71 -161.87,41.14 -47.76,27.42 -84.91,68.54 -111.44,123.38 -26.54,54.83 -39.8,124.71 -39.8,209.62l0 716.43 -413.94 0 0 -1427.55 395.36 0 0 390.05 -74.3 -114.09c49.53,-97.29 119.84,-171.15 210.95,-221.57 91.11,-50.41 195.03,-75.62 311.78,-75.62 130.9,0 245.44,33.17 343.63,99.5 98.18,66.33 163.18,167.61 195.02,303.82l-145.94 -39.8c47.77,-111.45 124.28,-199.9 229.53,-265.34 105.25,-65.45 225.98,-98.18 362.19,-98.18zm1799.03 1470.01c-120.29,0 -225.54,-26.54 -315.75,-79.61 -90.22,-53.07 -160.54,-134 -210.95,-242.79 -50.42,-108.79 -75.63,-246.32 -75.63,-412.61 0,-168.05 23.88,-306.03 71.65,-413.94 47.76,-107.9 116.75,-188.39 206.96,-241.47 90.22,-53.06 198.12,-79.6 323.72,-79.6 134.44,0 255.18,30.52 362.19,91.55 107.02,61.02 191.94,146.38 254.74,256.04 62.8,109.68 94.19,238.81 94.19,387.41 0,150.36 -31.39,280.38 -94.19,390.06 -62.8,109.67 -147.72,194.58 -254.74,254.73 -107.01,60.14 -227.75,90.22 -362.19,90.22zm-843.79 493.54l0 -1942.32 395.36 0 0 291.88 -7.96 424.55 26.54 421.89 0 804.01 -413.94 0zm772.16 -833.19c68.98,0 130.45,-15.92 184.41,-47.76 53.95,-31.84 97.28,-77.39 130.01,-136.65 32.73,-59.26 49.1,-129.58 49.1,-210.95 0,-83.14 -16.37,-153.89 -49.1,-212.27 -32.73,-58.38 -76.06,-103.48 -130.01,-135.32 -53.96,-31.85 -115.43,-47.77 -184.41,-47.77 -69,0 -130.91,15.92 -185.74,47.77 -54.84,31.84 -98.18,76.94 -130.02,135.32 -31.85,58.38 -47.76,129.13 -47.76,212.27 0,81.37 15.91,151.69 47.76,210.95 31.84,59.27 75.18,104.81 130.02,136.65 54.83,31.84 116.75,47.76 185.74,47.76zm1767.18 339.65c-162.75,0 -305.58,-31.85 -428.52,-95.53 -122.95,-63.69 -218.03,-150.81 -285.25,-261.36 -67.22,-110.56 -100.84,-236.6 -100.84,-378.12 0,-143.28 33.17,-270.21 99.5,-380.76 66.34,-110.56 156.99,-197.24 271.98,-260.03 114.98,-62.81 245,-94.2 390.05,-94.2 139.75,0 265.78,29.63 378.12,88.89 112.32,59.26 201.22,144.16 266.67,254.72 65.44,110.56 98.18,242.79 98.18,396.69 0,15.92 -0.9,34.05 -2.65,54.39 -1.78,20.34 -3.54,39.36 -5.31,57.06l-1159.55 0 0 -241.47 941.97 0 -159.21 71.64c0,-74.29 -15.03,-138.86 -45.1,-193.7 -30.07,-54.83 -71.64,-97.74 -124.71,-128.69 -53.07,-30.96 -114.99,-46.44 -185.74,-46.44 -70.75,0 -133.11,15.48 -187.07,46.44 -53.95,30.95 -95.96,74.29 -126.04,130.02 -30.07,55.72 -45.1,121.61 -45.1,197.68l0 63.69c0,77.83 17.24,146.37 51.74,205.63 34.5,59.27 83.15,104.37 145.94,135.33 62.8,30.95 136.66,46.44 221.57,46.44 76.06,0 142.84,-11.5 200.33,-34.49 57.49,-23 110.12,-57.5 157.88,-103.48l220.24 238.81c-65.45,74.29 -147.71,131.33 -246.78,171.14 -99.06,39.8 -213.15,59.71 -342.29,59.71zm995.04 -21.23l0 -1857.41 804 0c166.28,0 309.57,26.98 429.86,80.94 120.28,53.95 213.15,131.34 278.61,232.17 65.45,100.84 98.17,221.13 98.17,360.87 0,137.99 -32.72,257.39 -98.17,358.21 -65.45,100.84 -158.33,178.23 -278.61,232.18 -120.3,53.96 -263.58,80.93 -429.86,80.93l-565.18 0 191.04 -193.7 0 705.82 -429.86 0zm429.86 -658.06l-191.04 -204.32 541.3 0c132.67,0 231.73,-28.3 297.18,-84.91 65.44,-56.6 98.18,-135.32 98.18,-236.16 0,-102.59 -32.74,-182.2 -98.18,-238.8 -65.45,-56.61 -164.51,-84.91 -297.18,-84.91l-541.3 0 191.04 -204.32 0 1053.41zm2162.55 679.29c-162.75,0 -305.59,-31.85 -428.53,-95.53 -122.94,-63.69 -218.02,-150.81 -285.25,-261.36 -67.22,-110.56 -100.83,-236.6 -100.83,-378.12 0,-143.28 33.17,-270.21 99.5,-380.76 66.33,-110.56 156.99,-197.24 271.98,-260.03 114.98,-62.81 245,-94.2 390.05,-94.2 139.75,0 265.78,29.63 378.11,88.89 112.33,59.26 201.23,144.16 266.67,254.72 65.45,110.56 98.18,242.79 98.18,396.69 0,15.92 -0.89,34.05 -2.65,54.39 -1.77,20.34 -3.54,39.36 -5.31,57.06l-1159.54 0 0 -241.47 941.97 0 -159.21 71.64c0,-74.29 -15.03,-138.86 -45.11,-193.7 -30.06,-54.83 -71.63,-97.74 -124.71,-128.69 -53.07,-30.96 -114.98,-46.44 -185.73,-46.44 -70.76,0 -133.12,15.48 -187.07,46.44 -53.96,30.95 -95.97,74.29 -126.04,130.02 -30.07,55.72 -45.11,121.61 -45.11,197.68l0 63.69c0,77.83 17.25,146.37 51.75,205.63 34.49,59.27 83.14,104.37 145.94,135.33 62.8,30.95 136.65,46.44 221.57,46.44 76.06,0 142.83,-11.5 200.33,-34.49 57.49,-23 110.11,-57.5 157.88,-103.48l220.23 238.81c-65.44,74.29 -147.7,131.33 -246.77,171.14 -99.06,39.8 -213.16,59.71 -342.29,59.71zm1833.52 -1470.01c113.22,0 214.49,22.55 303.82,67.67 89.34,45.1 159.66,114.1 210.95,206.97 51.3,92.87 76.95,211.83 76.95,356.88l0 817.26 -413.94 0 0 -753.57c0,-114.99 -25.21,-199.9 -75.62,-254.74 -50.41,-54.83 -121.61,-82.25 -213.6,-82.25 -65.45,0 -124.27,13.71 -176.46,41.14 -52.18,27.42 -92.87,69.42 -122.06,126.03 -29.18,56.61 -43.78,129.13 -43.78,217.58l0 705.82 -413.94 0 0 -1427.55 395.36 0 0 395.36 -74.3 -119.4c51.3,-95.53 124.71,-168.94 220.24,-220.25 95.53,-51.29 204.31,-76.94 326.36,-76.94zm1666.36 1470.01c-153.89,0 -290.99,-31.4 -411.27,-94.2 -120.3,-62.79 -214.49,-149.92 -282.6,-261.36 -68.1,-111.44 -102.15,-237.92 -102.15,-379.44 0,-143.28 34.05,-270.21 102.15,-380.76 68.11,-110.56 162.3,-197.24 282.6,-260.03 120.28,-62.81 257.38,-94.2 411.27,-94.2 150.37,0 281.27,31.39 392.72,94.2 111.45,62.79 193.7,152.57 246.77,269.32l-321.06 172.47c-37.15,-67.22 -83.58,-116.75 -139.31,-148.58 -55.72,-31.85 -116.3,-47.77 -181.77,-47.77 -70.75,0 -134.43,15.92 -191.03,47.77 -56.61,31.84 -101.28,76.94 -134.01,135.32 -32.72,58.38 -49.08,129.13 -49.08,212.27 0,83.14 16.36,153.89 49.08,212.27 32.73,58.38 77.4,103.49 134.01,135.33 56.6,31.84 120.28,47.76 191.03,47.76 65.46,0 126.04,-15.48 181.77,-46.43 55.72,-30.96 102.16,-80.93 139.31,-149.93l321.06 175.13c-53.07,114.98 -135.32,203.87 -246.77,266.66 -111.45,62.8 -242.34,94.2 -392.72,94.2zm1753.92 -21.23l0 -278.62 -26.53 -61.02 0 -498.85c0,-88.45 -26.97,-157.44 -80.93,-206.96 -53.96,-49.53 -136.65,-74.3 -248.1,-74.3 -76.06,0 -150.8,11.94 -224.21,35.83 -73.41,23.87 -135.76,56.16 -187.07,96.84l-148.58 -289.22c77.82,-54.83 171.58,-97.28 281.25,-127.37 109.68,-30.06 221.13,-45.1 334.34,-45.1 217.58,0 386.52,51.3 506.81,153.9 120.29,102.59 180.43,262.69 180.43,480.27l0 814.61 -387.41 0zm-435.15 21.23c-111.46,0 -206.97,-19.02 -286.58,-57.06 -79.6,-38.03 -140.63,-89.77 -183.09,-155.23 -42.45,-65.44 -63.68,-138.86 -63.68,-220.24 0,-84.91 20.79,-159.19 62.36,-222.88 41.58,-63.68 107.47,-113.66 197.69,-149.92 90.22,-36.27 207.85,-54.4 352.9,-54.4l379.45 0 0 241.47 -334.34 0c-97.29,0 -164.07,15.92 -200.34,47.76 -36.26,31.85 -54.39,71.64 -54.39,119.41 0,53.06 20.79,95.07 62.36,126.03 41.57,30.95 98.62,46.44 171.15,46.44 68.99,0 130.9,-16.36 185.74,-49.09 54.83,-32.72 94.64,-80.93 119.4,-144.61l63.68 191.04c-30.06,91.98 -84.91,161.86 -164.5,209.62 -79.61,47.77 -182.2,71.65 -307.8,71.65zm1676.97 0c-122.06,0 -239.25,-14.6 -351.58,-43.79 -112.32,-29.18 -201.22,-65.89 -266.66,-110.11l137.98 -297.18c65.45,40.68 142.84,73.85 232.17,99.5 89.34,25.64 177.34,38.47 264.03,38.47 95.52,0 163.18,-11.5 202.99,-34.49 39.8,-23 59.7,-54.83 59.7,-95.53 0,-33.62 -15.49,-58.81 -46.44,-75.62 -30.96,-16.81 -72.09,-29.63 -123.38,-38.47 -51.31,-8.85 -107.47,-17.7 -168.5,-26.54 -61.03,-8.85 -122.5,-20.79 -184.41,-35.82 -61.91,-15.04 -118.52,-37.6 -169.82,-67.67 -51.3,-30.07 -92.43,-70.76 -123.38,-122.06 -30.96,-51.31 -46.44,-117.64 -46.44,-199.02 0,-90.22 26.09,-169.81 78.27,-238.8 52.18,-68.99 127.8,-123.39 226.87,-163.19 99.06,-39.8 217.57,-59.7 355.56,-59.7 97.29,0 196.35,10.61 297.19,31.85 100.83,21.22 184.86,52.18 252.08,92.86l-137.99 294.53c-68.99,-40.69 -138.42,-68.54 -208.3,-83.58 -69.87,-15.03 -137.53,-22.55 -202.99,-22.55 -91.98,0 -159.2,12.39 -201.66,37.14 -42.45,24.77 -63.68,56.61 -63.68,95.53 0,35.38 15.48,61.91 46.44,79.61 30.96,17.69 72.08,31.84 123.38,42.46 51.3,10.61 107.47,19.9 168.49,27.85 61.03,7.96 122.51,19.91 184.42,35.83 61.91,15.92 118.08,38.48 168.49,67.67 50.41,29.19 91.55,68.99 123.39,119.41 31.84,50.4 47.76,116.3 47.76,197.68 0,88.44 -26.53,166.72 -79.6,234.82 -53.08,68.11 -129.58,121.62 -229.53,160.54 -99.94,38.92 -221.56,58.38 -364.84,58.38z"/>
  <g style="clip-path:url(#id0)">
   <g id="_2361287235312">
    <g>
     <rect class="fil4" transform="matrix(7.57476E-15 -0.286007 1.25709 3.32934E-14 455.734 4739.48)" width="23501.68" height="15667.78"/>
     <path class="fil5" d="M2330.34 4739.48l194.17 -224.06c194.17,-224.06 582.54,-672.16 530.76,-1120.27 -47.47,-448.1 -539.39,-896.22 -560.96,-1344.33 -21.57,-448.1 427.19,-896.22 496.23,-1344.32 73.36,-448.11 -228.7,-896.23 -371.09,-1344.33 -146.71,-448.11 -129.46,-896.22 -125.14,-1120.27l8.63 -224.06 17691.74 0 0 224.06c0,224.06 0,672.16 0,1120.27 0,448.1 0,896.22 0,1344.33 0,448.1 0,896.22 0,1344.32 0,448.11 0,896.23 0,1344.33 0,448.11 0,896.22 0,1120.27l0 224.06 -17864.33 0z"/>
     <path class="fil6" d="M4228.96 4739.48l-34.51 -224.06c-38.83,-224.06 -107.88,-672.16 -211.44,-1120.27 -99.24,-448.1 -228.71,-896.22 -176.92,-1344.33 47.47,-448.1 280.48,-896.22 444.45,-1344.32 163.98,-448.11 267.54,-896.23 207.12,-1344.33 -56.09,-448.11 -271.83,-896.22 -379.72,-1120.27l-107.88 -224.06 16224.62 0 0 224.06c0,224.06 0,672.16 0,1120.27 0,448.1 0,896.22 0,1344.33 0,448.1 0,896.22 0,1344.32 0,448.11 0,896.23 0,1344.33 0,448.11 0,896.22 0,1120.27l0 224.06 -15965.71 0z"/>
     <path class="fil7" d="M5394.03 4739.48l116.51 -224.06c112.19,-224.06 345.19,-672.16 414.24,-1120.27 73.36,-448.1 -12.95,-896.22 -120.83,-1344.33 -107.86,-448.1 -237.32,-896.22 -250.26,-1344.32 -17.27,-448.11 86.3,-896.23 99.25,-1344.33 12.95,-448.11 -56.11,-896.22 -94.93,-1120.27l-34.53 -224.06 14671.2 0 0 224.06c0,224.06 0,672.16 0,1120.27 0,448.1 0,896.22 0,1344.33 0,448.1 0,896.22 0,1344.32 0,448.11 0,896.23 0,1344.33 0,448.11 0,896.22 0,1120.27l0 224.06 -14800.64 0z"/>
     <path class="fil8" d="M6429.64 4739.48l12.95 -224.06c17.25,-224.06 43.15,-672.16 159.65,-1120.27 116.51,-448.1 315,-896.22 293.43,-1344.33 -21.57,-448.1 -263.23,-896.22 -302.06,-1344.32 -34.53,-448.11 138.08,-896.23 267.53,-1344.33 129.46,-448.11 215.75,-896.22 258.9,-1120.27l43.16 -224.06 13031.47 0 0 224.06c0,224.06 0,672.16 0,1120.27 0,448.1 0,896.22 0,1344.33 0,448.1 0,896.22 0,1344.32 0,448.11 0,896.23 0,1344.33 0,448.11 0,896.22 0,1120.27l0 224.06 -13765.03 0z"/>
     <path class="fil9" d="M8112.53 4739.48l34.5 -224.06c38.84,-224.06 107.88,-672.16 151.04,-1120.27 43.13,-448.1 60.4,-896.22 60.4,-1344.33 0,-448.1 -17.27,-896.22 -64.72,-1344.32 -51.79,-448.11 -138.09,-896.23 -194.17,-1344.33 -60.41,-448.11 -86.31,-896.22 -103.57,-1120.27l-12.95 -224.06 12211.61 0 0 224.06c0,224.06 0,672.16 0,1120.27 0,448.1 0,896.22 0,1344.33 0,448.1 0,896.22 0,1344.32 0,448.11 0,896.23 0,1344.33 0,448.11 0,896.22 0,1120.27l0 224.06 -12082.15 0z"/>
     <path class="fil10" d="M10054.29 4739.48l-51.78 -224.06c-47.46,-224.06 -151.02,-672.16 -198.49,-1120.27 -51.79,-448.1 -51.79,-896.22 -138.07,-1344.33 -86.31,-448.1 -258.91,-896.22 -323.63,-1344.32 -64.73,-448.11 -21.57,-896.23 -21.57,-1344.33 0,-448.11 -43.16,-896.22 -64.73,-1120.27l-21.57 -224.06 10960.24 0 0 224.06c0,224.06 0,672.16 0,1120.27 0,448.1 0,896.22 0,1344.33 0,448.1 0,896.22 0,1344.32 0,448.11 0,896.23 0,1344.33 0,448.11 0,896.22 0,1120.27l0 224.06 -10140.39 0z"/>
     <path class="fil11" d="M11133.06 4739.48l56.09 -224.06c60.42,-224.06 172.61,-672.16 215.77,-1120.27 43.13,-448.1 17.25,-896.22 -34.53,-1344.33 -51.78,-448.1 -120.81,-896.22 -215.75,-1344.32 -94.93,-448.11 -207.12,-896.23 -138.08,-1344.33 73.35,-448.11 332.26,-896.22 461.71,-1120.27l129.45 -224.06 8586.96 0 0 224.06c0,224.06 0,672.16 0,1120.27 0,448.1 0,896.22 0,1344.33 0,448.1 0,896.22 0,1344.32 0,448.11 0,896.23 0,1344.33 0,448.11 0,896.22 0,1120.27l0 224.06 -9061.61 0z"/>
     <path class="fil12" d="M12815.92 4739.48l-64.71 -224.06c-64.73,-224.06 -194.19,-672.16 -250.28,-1120.27 -60.4,-448.1 -43.15,-896.22 12.95,-1344.33 56.09,-448.1 159.65,-896.22 138.07,-1344.32 -21.57,-448.11 -168.29,-896.23 -146.71,-1344.33 21.57,-448.11 211.44,-896.22 302.06,-1120.27l94.93 -224.06 7292.44 0 0 224.06c0,224.06 0,672.16 0,1120.27 0,448.1 0,896.22 0,1344.33 0,448.1 0,896.22 0,1344.32 0,448.11 0,896.23 0,1344.33 0,448.11 0,896.22 0,1120.27l0 224.06 -7378.75 0z"/>
     <path class="fil13" d="M14283.05 4739.48l-51.78 -224.06c-47.48,-224.06 -151.04,-672.16 -228.71,-1120.27 -77.67,-448.1 -138.08,-896.22 -107.88,-1344.33 30.21,-448.1 142.4,-896.22 120.83,-1344.32 -21.57,-448.11 -176.92,-896.23 -271.84,-1344.33 -94.93,-448.11 -120.84,-896.22 -138.09,-1120.27l-12.95 -224.06 6602.04 0 0 224.06c0,224.06 0,672.16 0,1120.27 0,448.1 0,896.22 0,1344.33 0,448.1 0,896.22 0,1344.32 0,448.11 0,896.23 0,1344.33 0,448.11 0,896.22 0,1120.27l0 224.06 -5911.63 0z"/>
     <path class="fil14" d="M15491.26 4739.48l-64.72 -224.06c-64.71,-224.06 -194.18,-672.16 -185.55,-1120.27 4.32,-448.1 151.03,-896.22 151.03,-1344.33 0,-448.1 -146.71,-896.22 -181.24,-1344.32 -34.52,-448.11 34.53,-896.23 99.26,-1344.33 64.71,-448.11 125.13,-896.22 151.02,-1120.27l30.2 -224.06 4703.41 0 0 224.06c0,224.06 0,672.16 0,1120.27 0,448.1 0,896.22 0,1344.33 0,448.1 0,896.22 0,1344.32 0,448.11 0,896.23 0,1344.33 0,448.11 0,896.22 0,1120.27l0 224.06 -4703.41 0z"/>
     <path class="fil15" d="M16570.03 4739.48l34.52 -224.06c38.83,-224.06 107.86,-672.16 146.7,-1120.27 34.52,-448.1 34.52,-896.22 21.57,-1344.33 -17.25,-448.1 -43.15,-896.22 -81.99,-1344.32 -34.51,-448.11 -77.66,-896.23 -90.61,-1344.33 -17.25,-448.11 0,-896.22 4.32,-1120.27l8.63 -224.06 3581.49 0 0 224.06c0,224.06 0,672.16 0,1120.27 0,448.1 0,896.22 0,1344.33 0,448.1 0,896.22 0,1344.32 0,448.11 0,896.23 0,1344.33 0,448.11 0,896.22 0,1120.27l0 224.06 -3624.64 0z"/>
     <path class="fil16" d="M18296.04 4739.48l-34.51 -224.06c-38.85,-224.06 -107.88,-672.16 -159.66,-1120.27 -51.79,-448.1 -77.68,-896.22 -51.79,-1344.33 30.21,-448.1 116.52,-896.22 116.52,-1344.32 0,-448.11 -86.31,-896.23 -138.09,-1344.33 -47.45,-448.11 -64.72,-896.22 -69.04,-1120.27l-8.63 -224.06 2243.82 0 0 224.06c0,224.06 0,672.16 0,1120.27 0,448.1 0,896.22 0,1344.33 0,448.1 0,896.22 0,1344.32 0,448.11 0,896.23 0,1344.33 0,448.11 0,896.22 0,1120.27l0 224.06 -1898.63 0z"/>
    </g>
   </g>
  </g>
  <path class="fil17" d="M455.73 2049.98l0 -1857.41 803.99 0c166.29,0 309.58,26.98 429.86,80.94 120.29,53.95 213.16,131.34 278.61,232.17 65.45,100.84 98.18,221.13 98.18,360.87 0,137.99 -32.73,256.94 -98.18,356.89 -65.44,99.95 -158.32,176.45 -278.61,229.52 -120.29,53.07 -263.57,79.61 -429.86,79.61l-565.18 0 191.05 -188.4 0 705.82 -429.86 0zm1180.78 0l-464.36 -673.98 459.05 0 469.67 673.98 -464.36 0zm-750.92 -658.06l-191.05 -201.66 541.3 0c132.68,0 231.74,-28.74 297.18,-86.23 65.45,-57.5 98.18,-136.65 98.18,-237.49 0,-102.59 -32.73,-182.2 -98.18,-238.8 -65.44,-56.61 -164.5,-84.91 -297.18,-84.91l-541.3 0 191.05 -204.32 0 1053.41zm2170.51 679.29c-152.13,0 -287.01,-31.85 -404.66,-95.53 -117.63,-63.69 -210.51,-150.81 -278.61,-261.36 -68.11,-110.56 -102.16,-236.6 -102.16,-378.12 0,-143.28 34.05,-270.21 102.16,-380.76 68.1,-110.56 160.97,-197.24 278.61,-260.03 117.64,-62.81 252.53,-94.2 404.66,-94.2 150.36,0 284.8,31.39 403.33,94.2 118.51,62.79 211.38,149.03 278.61,258.7 67.22,109.68 100.83,237.04 100.83,382.1 0,141.52 -33.61,267.56 -100.83,378.12 -67.22,110.56 -160.09,197.68 -278.61,261.36 -118.52,63.68 -252.96,95.53 -403.33,95.53zm0 -339.65c68.99,0 130.9,-15.92 185.74,-47.76 54.83,-31.84 98.17,-77.39 130.02,-136.65 31.84,-59.26 47.76,-129.58 47.76,-210.95 0,-83.14 -15.92,-153.89 -47.76,-212.27 -31.85,-58.38 -75.19,-103.48 -130.02,-135.32 -54.84,-31.85 -116.76,-47.77 -185.74,-47.77 -69,0 -130.91,15.92 -185.74,47.77 -54.84,31.84 -98.62,76.94 -131.34,135.32 -32.73,58.38 -49.09,129.13 -49.09,212.27 0,81.37 16.36,151.69 49.09,210.95 32.73,59.27 76.5,104.81 131.34,136.65 54.83,31.84 116.75,47.76 185.74,47.76zm2886.94 -1130.36c113.21,0 213.6,22.55 301.17,67.67 87.56,45.1 156.55,114.1 206.96,206.97 50.41,92.87 75.62,211.83 75.62,356.88l0 817.26 -413.94 0 0 -753.57c0,-114.99 -23.87,-199.9 -71.64,-254.74 -47.76,-54.83 -114.98,-82.25 -201.66,-82.25 -60.14,0 -114.09,13.71 -161.86,41.14 -47.76,27.42 -84.91,68.54 -111.45,123.38 -26.53,54.83 -39.79,124.71 -39.79,209.62l0 716.43 -413.94 0 0 -753.57c0,-114.99 -23.44,-199.9 -70.32,-254.74 -46.88,-54.83 -113.66,-82.25 -200.33,-82.25 -60.15,0 -114.1,13.71 -161.87,41.14 -47.76,27.42 -84.91,68.54 -111.44,123.38 -26.54,54.83 -39.8,124.71 -39.8,209.62l0 716.43 -413.94 0 0 -1427.55 395.36 0 0 390.05 -74.3 -114.09c49.53,-97.29 119.84,-171.15 210.95,-221.57 91.11,-50.41 195.03,-75.62 311.78,-75.62 130.9,0 245.44,33.17 343.63,99.5 98.18,66.33 163.18,167.61 195.02,303.82l-145.94 -39.8c47.77,-111.45 124.28,-199.9 229.53,-265.34 105.25,-65.45 225.98,-98.18 362.19,-98.18zm1799.03 1470.01c-120.29,0 -225.54,-26.54 -315.75,-79.61 -90.22,-53.07 -160.54,-134 -210.95,-242.79 -50.42,-108.79 -75.63,-246.32 -75.63,-412.61 0,-168.05 23.88,-306.03 71.65,-413.94 47.76,-107.9 116.75,-188.39 206.96,-241.47 90.22,-53.06 198.12,-79.6 323.72,-79.6 134.44,0 255.18,30.52 362.19,91.55 107.02,61.02 191.94,146.38 254.74,256.04 62.8,109.68 94.19,238.81 94.19,387.41 0,150.36 -31.39,280.38 -94.19,390.06 -62.8,109.67 -147.72,194.58 -254.74,254.73 -107.01,60.14 -227.75,90.22 -362.19,90.22zm-843.79 493.54l0 -1942.32 395.36 0 0 291.88 -7.96 424.55 26.54 421.89 0 804.01 -413.94 0zm772.16 -833.19c68.98,0 130.45,-15.92 184.41,-47.76 53.95,-31.84 97.28,-77.39 130.01,-136.65 32.73,-59.26 49.1,-129.58 49.1,-210.95 0,-83.14 -16.37,-153.89 -49.1,-212.27 -32.73,-58.38 -76.06,-103.48 -130.01,-135.32 -53.96,-31.85 -115.43,-47.77 -184.41,-47.77 -69,0 -130.91,15.92 -185.74,47.77 -54.84,31.84 -98.18,76.94 -130.02,135.32 -31.85,58.38 -47.76,129.13 -47.76,212.27 0,81.37 15.91,151.69 47.76,210.95 31.84,59.27 75.18,104.81 130.02,136.65 54.83,31.84 116.75,47.76 185.74,47.76zm1767.18 339.65c-162.75,0 -305.58,-31.85 -428.52,-95.53 -122.95,-63.69 -218.03,-150.81 -285.25,-261.36 -67.22,-110.56 -100.84,-236.6 -100.84,-378.12 0,-143.28 33.17,-270.21 99.5,-380.76 66.34,-110.56 156.99,-197.24 271.98,-260.03 114.98,-62.81 245,-94.2 390.05,-94.2 139.75,0 265.78,29.63 378.12,88.89 112.32,59.26 201.22,144.16 266.67,254.72 65.44,110.56 98.18,242.79 98.18,396.69 0,15.92 -0.9,34.05 -2.65,54.39 -1.78,20.34 -3.54,39.36 -5.31,57.06l-1159.55 0 0 -241.47 941.97 0 -159.21 71.64c0,-74.29 -15.03,-138.86 -45.1,-193.7 -30.07,-54.83 -71.64,-97.74 -124.71,-128.69 -53.07,-30.96 -114.99,-46.44 -185.74,-46.44 -70.75,0 -133.11,15.48 -187.07,46.44 -53.95,30.95 -95.96,74.29 -126.04,130.02 -30.07,55.72 -45.1,121.61 -45.1,197.68l0 63.69c0,77.83 17.24,146.37 51.74,205.63 34.5,59.27 83.15,104.37 145.94,135.33 62.8,30.95 136.66,46.44 221.57,46.44 76.06,0 142.84,-11.5 200.33,-34.49 57.49,-23 110.12,-57.5 157.88,-103.48l220.24 238.81c-65.45,74.29 -147.71,131.33 -246.78,171.14 -99.06,39.8 -213.15,59.71 -342.29,59.71zm995.04 -21.23l0 -1857.41 804 0c166.28,0 309.57,26.98 429.86,80.94 120.28,53.95 213.15,131.34 278.61,232.17 65.45,100.84 98.17,221.13 98.17,360.87 0,137.99 -32.72,257.39 -98.17,358.21 -65.45,100.84 -158.33,178.23 -278.61,232.18 -120.3,53.96 -263.58,80.93 -429.86,80.93l-565.18 0 191.04 -193.7 0 705.82 -429.86 0zm429.86 -658.06l-191.04 -204.32 541.3 0c132.67,0 231.73,-28.3 297.18,-84.91 65.44,-56.6 98.18,-135.32 98.18,-236.16 0,-102.59 -32.74,-182.2 -98.18,-238.8 -65.45,-56.61 -164.51,-84.91 -297.18,-84.91l-541.3 0 191.04 -204.32 0 1053.41zm2162.55 679.29c-162.75,0 -305.59,-31.85 -428.53,-95.53 -122.94,-63.69 -218.02,-150.81 -285.25,-261.36 -67.22,-110.56 -100.83,-236.6 -100.83,-378.12 0,-143.28 33.17,-270.21 99.5,-380.76 66.33,-110.56 156.99,-197.24 271.98,-260.03 114.98,-62.81 245,-94.2 390.05,-94.2 139.75,0 265.78,29.63 378.11,88.89 112.33,59.26 201.23,144.16 266.67,254.72 65.45,110.56 98.18,242.79 98.18,396.69 0,15.92 -0.89,34.05 -2.65,54.39 -1.77,20.34 -3.54,39.36 -5.31,57.06l-1159.54 0 0 -241.47 941.97 0 -159.21 71.64c0,-74.29 -15.03,-138.86 -45.11,-193.7 -30.06,-54.83 -71.63,-97.74 -124.71,-128.69 -53.07,-30.96 -114.98,-46.44 -185.73,-46.44 -70.76,0 -133.12,15.48 -187.07,46.44 -53.96,30.95 -95.97,74.29 -126.04,130.02 -30.07,55.72 -45.11,121.61 -45.11,197.68l0 63.69c0,77.83 17.25,146.37 51.75,205.63 34.49,59.27 83.14,104.37 145.94,135.33 62.8,30.95 136.65,46.44 221.57,46.44 76.06,0 142.83,-11.5 200.33,-34.49 57.49,-23 110.11,-57.5 157.88,-103.48l220.23 238.81c-65.44,74.29 -147.7,131.33 -246.77,171.14 -99.06,39.8 -213.16,59.71 -342.29,59.71zm1833.52 -1470.01c113.22,0 214.49,22.55 303.82,67.67 89.34,45.1 159.66,114.1 210.95,206.97 51.3,92.87 76.95,211.83 76.95,356.88l0 817.26 -413.94 0 0 -753.57c0,-114.99 -25.21,-199.9 -75.62,-254.74 -50.41,-54.83 -121.61,-82.25 -213.6,-82.25 -65.45,0 -124.27,13.71 -176.46,41.14 -52.18,27.42 -92.87,69.42 -122.06,126.03 -29.18,56.61 -43.78,129.13 -43.78,217.58l0 705.82 -413.94 0 0 -1427.55 395.36 0 0 395.36 -74.3 -119.4c51.3,-95.53 124.71,-168.94 220.24,-220.25 95.53,-51.29 204.31,-76.94 326.36,-76.94zm1666.36 1470.01c-153.89,0 -290.99,-31.4 -411.27,-94.2 -120.3,-62.79 -214.49,-149.92 -282.6,-261.36 -68.1,-111.44 -102.15,-237.92 -102.15,-379.44 0,-143.28 34.05,-270.21 102.15,-380.76 68.11,-110.56 162.3,-197.24 282.6,-260.03 120.28,-62.81 257.38,-94.2 411.27,-94.2 150.37,0 281.27,31.39 392.72,94.2 111.45,62.79 193.7,152.57 246.77,269.32l-321.06 172.47c-37.15,-67.22 -83.58,-116.75 -139.31,-148.58 -55.72,-31.85 -116.3,-47.77 -181.77,-47.77 -70.75,0 -134.43,15.92 -191.03,47.77 -56.61,31.84 -101.28,76.94 -134.01,135.32 -32.72,58.38 -49.08,129.13 -49.08,212.27 0,83.14 16.36,153.89 49.08,212.27 32.73,58.38 77.4,103.49 134.01,135.33 56.6,31.84 120.28,47.76 191.03,47.76 65.46,0 126.04,-15.48 181.77,-46.43 55.72,-30.96 102.16,-80.93 139.31,-149.93l321.06 175.13c-53.07,114.98 -135.32,203.87 -246.77,266.66 -111.45,62.8 -242.34,94.2 -392.72,94.2zm1753.92 -21.23l0 -278.62 -26.53 -61.02 0 -498.85c0,-88.45 -26.97,-157.44 -80.93,-206.96 -53.96,-49.53 -136.65,-74.3 -248.1,-74.3 -76.06,0 -150.8,11.94 -224.21,35.83 -73.41,23.87 -135.76,56.16 -187.07,96.84l-148.58 -289.22c77.82,-54.83 171.58,-97.28 281.25,-127.37 109.68,-30.06 221.13,-45.1 334.34,-45.1 217.58,0 386.52,51.3 506.81,153.9 120.29,102.59 180.43,262.69 180.43,480.27l0 814.61 -387.41 0zm-435.15 21.23c-111.46,0 -206.97,-19.02 -286.58,-57.06 -79.6,-38.03 -140.63,-89.77 -183.09,-155.23 -42.45,-65.44 -63.68,-138.86 -63.68,-220.24 0,-84.91 20.79,-159.19 62.36,-222.88 41.58,-63.68 107.47,-113.66 197.69,-149.92 90.22,-36.27 207.85,-54.4 352.9,-54.4l379.45 0 0 241.47 -334.34 0c-97.29,0 -164.07,15.92 -200.34,47.76 -36.26,31.85 -54.39,71.64 -54.39,119.41 0,53.06 20.79,95.07 62.36,126.03 41.57,30.95 98.62,46.44 171.15,46.44 68.99,0 130.9,-16.36 185.74,-49.09 54.83,-32.72 94.64,-80.93 119.4,-144.61l63.68 191.04c-30.06,91.98 -84.91,161.86 -164.5,209.62 -79.61,47.77 -182.2,71.65 -307.8,71.65zm1676.97 0c-122.06,0 -239.25,-14.6 -351.58,-43.79 -112.32,-29.18 -201.22,-65.89 -266.66,-110.11l137.98 -297.18c65.45,40.68 142.84,73.85 232.17,99.5 89.34,25.64 177.34,38.47 264.03,38.47 95.52,0 163.18,-11.5 202.99,-34.49 39.8,-23 59.7,-54.83 59.7,-95.53 0,-33.62 -15.49,-58.81 -46.44,-75.62 -30.96,-16.81 -72.09,-29.63 -123.38,-38.47 -51.31,-8.85 -107.47,-17.7 -168.5,-26.54 -61.03,-8.85 -122.5,-20.79 -184.41,-35.82 -61.91,-15.04 -118.52,-37.6 -169.82,-67.67 -51.3,-30.07 -92.43,-70.76 -123.38,-122.06 -30.96,-51.31 -46.44,-117.64 -46.44,-199.02 0,-90.22 26.09,-169.81 78.27,-238.8 52.18,-68.99 127.8,-123.39 226.87,-163.19 99.06,-39.8 217.57,-59.7 355.56,-59.7 97.29,0 196.35,10.61 297.19,31.85 100.83,21.22 184.86,52.18 252.08,92.86l-137.99 294.53c-68.99,-40.69 -138.42,-68.54 -208.3,-83.58 -69.87,-15.03 -137.53,-22.55 -202.99,-22.55 -91.98,0 -159.2,12.39 -201.66,37.14 -42.45,24.77 -63.68,56.61 -63.68,95.53 0,35.38 15.48,61.91 46.44,79.61 30.96,17.69 72.08,31.84 123.38,42.46 51.3,10.61 107.47,19.9 168.49,27.85 61.03,7.96 122.51,19.91 184.42,35.83 61.91,15.92 118.08,38.48 168.49,67.67 50.41,29.19 91.55,68.99 123.39,119.41 31.84,50.4 47.76,116.3 47.76,197.68 0,88.44 -26.53,166.72 -79.6,234.82 -53.08,68.11 -129.58,121.62 -229.53,160.54 -99.94,38.92 -221.56,58.38 -364.84,58.38z"/>
 </g>
</svg>
